<svg width="19" height="18" viewBox="0 0 19 18" fill="none" xmlns="http://www.w3.org/2000/svg">
<g id="Icon_Bubbles_small">
<g id="Group">
<path id="Vector" d="M10.8643 12.5754C11.0298 12.2852 11.2763 12.0461 11.5755 11.8856" stroke="white" stroke-width="1.66669" stroke-linecap="round" stroke-linejoin="round"/>
<path id="Vector_2" d="M13.7554 5.45328C13.8346 5.31455 13.9525 5.20024 14.0955 5.12341" stroke="white" stroke-width="1.25002" stroke-linecap="round" stroke-linejoin="round"/>
<path id="Vector_3" d="M3.3811 4.08298C3.64598 3.61866 4.04043 3.23612 4.51922 2.97925" stroke="white" stroke-width="1.66669" stroke-linecap="round" stroke-linejoin="round"/>
</g>
<path id="Vector_4" d="M5.59192 9.90636C8.12802 9.90636 10.1838 7.91266 10.1838 5.45318C10.1838 2.99371 8.12802 1 5.59192 1C3.05582 1 1 2.99371 1 5.45318C1 7.91266 3.05582 9.90636 5.59192 9.90636ZM14.7074 8.81781C15.4194 8.81781 16.1023 8.5435 16.6058 8.05522C17.1093 7.56695 17.3921 6.90471 17.3921 6.21418C17.3921 5.52366 17.1093 4.86141 16.6058 4.37314C16.1023 3.88486 15.4194 3.61055 14.7074 3.61055C13.9953 3.61055 13.3125 3.88486 12.809 4.37314C12.3055 4.86141 12.0226 5.52366 12.0226 6.21418C12.0226 6.90471 12.3055 7.56695 12.809 8.05522C13.3125 8.5435 13.9953 8.81781 14.7074 8.81781ZM12.2247 16.8335C14.1033 16.8335 15.6261 15.3567 15.6261 13.5349C15.6261 11.713 14.1033 10.2362 12.2247 10.2362C10.3461 10.2362 8.82327 11.713 8.82327 13.5349C8.82327 15.3567 10.3461 16.8335 12.2247 16.8335Z" fill="white"/>
<path id="Vector_5" d="M8.14305 5.45312C8.14305 6.02178 7.91012 6.56715 7.49549 6.96925C7.08086 7.37135 6.5185 7.59725 5.93213 7.59725" stroke="white" stroke-opacity="0.5" stroke-width="4.16672" stroke-linecap="round" stroke-linejoin="round"/>
<path id="Vector_6" d="M14.2657 13.5349C14.2657 13.9723 14.0865 14.3919 13.7675 14.7012C13.4486 15.0105 13.016 15.1842 12.5649 15.1842" stroke="white" stroke-opacity="0.5" stroke-width="2.50003" stroke-linecap="round" stroke-linejoin="round"/>
<path id="Vector_7" d="M16.1364 6.44275C16.1364 6.70521 16.0289 6.95691 15.8375 7.1425C15.6461 7.32808 15.3866 7.43235 15.116 7.43235" stroke="white" stroke-opacity="0.5" stroke-width="2.08336" stroke-linecap="round" stroke-linejoin="round"/>
<path id="Vector_8" d="M10.8643 12.5754C11.0298 12.2852 11.2763 12.0461 11.5755 11.8856" stroke="white" stroke-opacity="0.5" stroke-width="1.66669" stroke-linecap="round" stroke-linejoin="round"/>
<path id="Vector_9" d="M13.7552 5.45316C13.8345 5.31443 13.9523 5.20012 14.0954 5.12329" stroke="white" stroke-opacity="0.5" stroke-width="1.25002" stroke-linecap="round" stroke-linejoin="round"/>
<path id="Vector_10" d="M3.3811 4.08298C3.64598 3.61866 4.04043 3.23612 4.51922 2.97925" stroke="white" stroke-opacity="0.5" stroke-width="1.66669" stroke-linecap="round" stroke-linejoin="round"/>
<g id="Group_2">
<path id="Vector_11" d="M5.93213 9.90636C8.46822 9.90636 10.524 7.91266 10.524 5.45318C10.524 2.99371 8.46822 1 5.93213 1C3.39603 1 1.34021 2.99371 1.34021 5.45318C1.34021 7.91266 3.39603 9.90636 5.93213 9.90636ZM14.9459 8.91677C15.6676 8.91677 16.3597 8.63874 16.87 8.14385C17.3803 7.64895 17.667 6.97773 17.667 6.27785C17.667 5.57796 17.3803 4.90674 16.87 4.41185C16.3597 3.91695 15.6676 3.63892 14.9459 3.63892C14.2242 3.63892 13.5321 3.91695 13.0218 4.41185C12.5114 4.90674 12.2248 5.57796 12.2248 6.27785C12.2248 6.97773 12.5114 7.64895 13.0218 8.14385C13.5321 8.63874 14.2242 8.91677 14.9459 8.91677ZM12.5649 16.8335C14.4435 16.8335 15.9663 15.3567 15.9663 13.5349C15.9663 11.713 14.4435 10.2362 12.5649 10.2362C10.6863 10.2362 9.16347 11.713 9.16347 13.5349C9.16347 15.3567 10.6863 16.8335 12.5649 16.8335Z" stroke="white" stroke-width="0.833344" stroke-linecap="round" stroke-linejoin="round"/>
<path id="Vector_12" d="M12.565 16.8335C14.4436 16.8335 15.9664 15.3567 15.9664 13.5349C15.9664 11.713 14.4436 10.2362 12.565 10.2362C10.6864 10.2362 9.16357 11.713 9.16357 13.5349C9.16357 15.3567 10.6864 16.8335 12.565 16.8335Z" stroke="white" stroke-width="0.833344" stroke-linecap="round" stroke-linejoin="round"/>
</g>
</g>
</svg>
