<svg width="24" height="24" viewBox="0 0 24 24" fill="none" xmlns="http://www.w3.org/2000/svg">
<g id="fluent:heart-pulse-24-regular">
<path id="Vector" d="M12.82 5.57995L12 6.40195L11.176 5.57795C10.325 4.72586 9.21248 4.18424 8.01689 4.03995C6.82129 3.89566 5.61188 4.15705 4.58259 4.78221C3.5533 5.40737 2.76377 6.36008 2.34061 7.48755C1.91746 8.61503 1.88519 9.85195 2.24898 11H3.85398C3.47482 10.1739 3.39805 9.24078 3.63708 8.36382C3.87611 7.48686 4.41575 6.7218 5.16166 6.20236C5.90757 5.68293 6.81231 5.44216 7.71774 5.52215C8.62317 5.60214 9.47169 5.99779 10.115 6.63995L11.473 7.99695C11.5436 8.06769 11.6277 8.12358 11.7203 8.16135C11.8129 8.19912 11.912 8.218 12.012 8.21689C12.112 8.21577 12.2107 8.19467 12.3024 8.15484C12.3941 8.11501 12.4769 8.05725 12.546 7.98495L13.88 6.63995C14.5237 5.9978 15.3725 5.60213 16.2783 5.522C17.184 5.44187 18.0891 5.68238 18.8356 6.20154C19.582 6.7207 20.1225 7.48554 20.3625 8.36254C20.6026 9.23954 20.527 10.173 20.149 11H21.754C22.1149 9.85166 22.0803 8.61551 21.6557 7.48921C21.2311 6.36291 20.4411 5.41152 19.412 4.7872C18.3829 4.16287 17.1742 3.90168 15.9791 4.0454C14.7841 4.18912 13.6717 4.72944 12.82 5.57995ZM11.47 21.075L4.89398 14.5H6.85698C6.90798 14.5 6.95898 14.497 7.00898 14.493L12 19.484L16.988 14.499H19.11L12.53 21.075C12.3894 21.2154 12.1987 21.2943 12 21.2943C11.8012 21.2943 11.6106 21.2154 11.47 21.075ZM9.41998 8.41495C9.35705 8.28931 9.26009 8.18388 9.14016 8.11067C9.02022 8.03746 8.88212 7.99942 8.74161 8.00087C8.6011 8.00233 8.46383 8.04324 8.34543 8.11892C8.22704 8.19461 8.13229 8.30203 8.07198 8.42895L6.38198 11.999H2.74998C2.55107 11.999 2.36031 12.078 2.21965 12.2186C2.079 12.3593 1.99998 12.55 1.99998 12.749C1.99998 12.9479 2.079 13.1386 2.21965 13.2793C2.36031 13.4199 2.55107 13.499 2.74998 13.499H6.85698C6.99902 13.499 7.13815 13.4587 7.25817 13.3827C7.3782 13.3068 7.47419 13.1983 7.53498 13.07L8.76898 10.464L11.329 15.584C11.3865 15.6994 11.4729 15.7981 11.5797 15.8705C11.6866 15.9428 11.8103 15.9864 11.9389 15.9969C12.0675 16.0075 12.1966 15.9847 12.3138 15.9307C12.4311 15.8768 12.5324 15.7935 12.608 15.689L15.306 11.953L16.436 13.243C16.5062 13.3235 16.5929 13.3881 16.6902 13.4324C16.7875 13.4768 16.8931 13.4998 17 13.5H21.25C21.4489 13.5 21.6397 13.4209 21.7803 13.2803C21.921 13.1396 22 12.9489 22 12.75C22 12.551 21.921 12.3603 21.7803 12.2196C21.6397 12.079 21.4489 12 21.25 12H17.34L15.814 10.257C15.7398 10.1721 15.6473 10.1051 15.5436 10.0609C15.4399 10.0166 15.3276 9.99637 15.215 10.0016C15.1024 10.0067 14.9923 10.0373 14.8931 10.0908C14.7939 10.1444 14.7081 10.2196 14.642 10.311L12.117 13.807L9.42098 8.41495H9.41998Z" fill="white"/>
</g>
</svg>
